<?xml version="1.0" encoding="utf-8"?>
<!-- Generator: Adobe Illustrator 22.1.0, SVG Export Plug-In . SVG Version: 6.00 Build 0)  -->
<svg version="1.1" id="Camada_1" xmlns="http://www.w3.org/2000/svg" xmlns:xlink="http://www.w3.org/1999/xlink" x="0px" y="0px"
	 viewBox="0 0 204 76" style="enable-background:new 0 0 204 76;" xml:space="preserve">
<style type="text/css">
	.st0{fill:#98993C;}
	.st1{fill:#363636;}
	.st2{font-family:'Roboto-Black';}
	.st3{font-size:18.6592px;}
	.st4{font-family:'Roboto-Light';}
</style>
<g>
	<g>
		<path class="st0" d="M36.7,10c-15.4,0-28,12.5-28,28C8.7,53.1,21,65.6,36.1,66v-7c0,0-0.1,0-0.1,0l-0.1,0c-0.1,0-0.1,0-0.2,0
			c-0.1,0-0.2,0-0.2,0l-0.1,0c-0.1,0-0.1,0-0.2,0c-0.1,0-0.2,0-0.2,0l-0.1,0c-0.1,0-0.1,0-0.2,0c-0.1,0-0.2,0-0.2,0l0,0
			c-0.1,0-0.2,0-0.2,0c-0.1,0-0.2,0-0.3,0l0,0c-0.1,0-0.1,0-0.2,0c-0.1,0-0.2,0-0.2,0l-0.1,0c-0.1,0-0.1,0-0.2,0
			c-0.1,0-0.2,0-0.3-0.1l0,0c-0.1,0-0.1,0-0.2,0c-0.1,0-0.2,0-0.3-0.1l0,0c-0.1,0-0.1,0-0.2,0c-0.1,0-0.2,0-0.3-0.1
			c-0.1,0-0.1,0-0.2-0.1c-0.1,0-0.2,0-0.3-0.1l0,0c-0.1,0-0.1,0-0.2-0.1c-0.1,0-0.2-0.1-0.3-0.1l0,0c-0.1,0-0.1,0-0.2-0.1
			c-0.1,0-0.2-0.1-0.3-0.1c-0.1,0-0.1,0-0.2-0.1c-0.1,0-0.2-0.1-0.3-0.1c-0.1,0-0.1,0-0.2-0.1c-0.1,0-0.2-0.1-0.3-0.1l-0.2-0.1
			c-0.1,0-0.2-0.1-0.3-0.1c-0.1,0-0.1-0.1-0.2-0.1c-0.1,0-0.2-0.1-0.3-0.1c-0.1,0-0.1-0.1-0.2-0.1c-0.1,0-0.2-0.1-0.3-0.1
			c-0.1,0-0.1-0.1-0.2-0.1c-0.1,0-0.2-0.1-0.3-0.1c-0.1,0-0.1-0.1-0.2-0.1c-0.1,0-0.2-0.1-0.3-0.1c-0.1,0-0.1-0.1-0.2-0.1
			c-0.1,0-0.2-0.1-0.3-0.1c-0.1,0-0.1-0.1-0.2-0.1c-0.1,0-0.2-0.1-0.3-0.1C26.1,56.1,26,56,26,56c-0.1-0.1-0.2-0.1-0.3-0.2
			c-0.1,0-0.1-0.1-0.2-0.1c-0.1-0.1-0.2-0.1-0.3-0.2c-0.1,0-0.1-0.1-0.2-0.1c-0.1-0.1-0.2-0.1-0.2-0.2c-0.1,0-0.1-0.1-0.2-0.1
			c-0.1-0.1-0.2-0.1-0.2-0.2c-0.1,0-0.1-0.1-0.2-0.1c-0.1-0.1-0.2-0.1-0.2-0.2c-0.1,0-0.1-0.1-0.2-0.1c-0.1-0.1-0.2-0.1-0.2-0.2
			c-0.1,0-0.1-0.1-0.2-0.1c-0.1-0.1-0.2-0.1-0.2-0.2c-0.1,0-0.1-0.1-0.2-0.1c-0.1-0.1-0.2-0.1-0.2-0.2c-0.1,0-0.1-0.1-0.2-0.1
			c-0.1-0.1-0.1-0.1-0.2-0.2c0,0-0.1-0.1-0.1-0.1c-0.1-0.1-0.1-0.1-0.2-0.2c0,0-0.1-0.1-0.1-0.1c-0.1-0.1-0.1-0.1-0.2-0.2l-0.1-0.1
			c-0.1-0.1-0.1-0.1-0.2-0.2c0,0-0.1-0.1-0.1-0.2c-0.1-0.1-0.1-0.1-0.2-0.2c0,0-0.1-0.1-0.1-0.1l0,0c-0.1-0.1-0.1-0.1-0.2-0.2
			l-0.1-0.2c-0.1-0.1-0.1-0.1-0.2-0.2c0-0.1-0.1-0.1-0.1-0.2c-0.1-0.1-0.1-0.2-0.2-0.2c0,0-0.1-0.1-0.1-0.1l0,0
			c-0.1-0.1-0.1-0.2-0.2-0.2c0-0.1-0.1-0.1-0.1-0.2c-0.1-0.1-0.1-0.2-0.2-0.2c0,0-0.1-0.1-0.1-0.1l0-0.1c-0.1-0.1-0.1-0.1-0.1-0.2
			c0,0-0.1-0.1-0.1-0.1l0-0.1c0-0.1-0.1-0.2-0.1-0.2c0-0.1-0.1-0.1-0.1-0.2l0,0c-0.1-0.1-0.1-0.2-0.2-0.2l-0.1-0.2
			c0-0.1-0.1-0.2-0.1-0.2c0,0-0.1-0.1-0.1-0.1l-0.1-0.1c0-0.1-0.1-0.1-0.1-0.2c0-0.1-0.1-0.1-0.1-0.2l0,0c0-0.1-0.1-0.2-0.1-0.2
			c0,0,0-0.1-0.1-0.1l0-0.1c0-0.1-0.1-0.1-0.1-0.2c0,0,0-0.1-0.1-0.1l-0.1-0.1c0-0.1-0.1-0.1-0.1-0.2c0-0.1,0-0.1-0.1-0.2l0-0.1
			c0-0.1-0.1-0.1-0.1-0.2c0-0.1,0-0.1-0.1-0.2l0-0.1c0-0.1-0.1-0.1-0.1-0.2c0-0.1,0-0.1-0.1-0.2l0-0.1c0-0.1,0-0.1-0.1-0.2
			c0-0.1,0-0.1-0.1-0.2l0-0.1c0-0.1,0-0.1-0.1-0.2c0-0.1,0-0.1-0.1-0.2l0-0.1c0-0.1,0-0.1-0.1-0.2c0-0.1,0-0.1,0-0.2l0-0.1
			c0-0.1,0-0.1-0.1-0.2c0-0.1,0-0.1-0.1-0.2l0-0.1c0-0.1,0-0.1-0.1-0.2c0-0.1,0-0.1,0-0.2l0-0.1c0-0.1,0-0.1,0-0.2
			c0-0.1,0-0.1,0-0.2l0-0.1c0-0.1,0-0.1,0-0.2c0-0.1,0-0.1,0-0.2l0-0.1c0-0.1,0-0.1,0-0.2c0-0.1,0-0.1,0-0.2l0-0.2
			c0-0.1,0-0.1,0-0.2c0-0.1,0-0.1,0-0.2l0-0.2c0-0.1,0-0.1,0-0.2c0-0.1,0-0.1,0-0.2l0-0.2c0-0.1,0-0.1,0-0.2c0-0.1,0-0.1,0-0.2
			l0-0.2c0-0.1,0-0.1,0-0.2c0-0.1,0-0.2,0-0.3l0-0.1c0,0,0-0.1,0-0.1c0-0.1,0-0.2,0-0.3l0-0.1c0,0,0-0.1,0-0.1c0-0.2,0-0.4,0-0.5
			c0-11.5,9.4-20.9,20.9-20.9h0.6v0c5.4,0.1,10.4,2.3,14.2,6.1c3.8,3.8,6,8.9,6.1,14.2h7C64.3,22.3,51.8,10,36.7,10z"/>
		<path class="st1" d="M49,41.4c0,0.1-0.1,0.2-0.1,0.3c0,0.1-0.1,0.2-0.1,0.3c0,0.1-0.1,0.2-0.1,0.3c0,0.1-0.1,0.2-0.1,0.3
			c0,0.1-0.1,0.2-0.1,0.3c0,0.1-0.1,0.2-0.1,0.3c0,0.1-0.1,0.2-0.1,0.3c0,0.1-0.1,0.2-0.1,0.3c0,0.1-0.1,0.2-0.1,0.3
			c0,0.1-0.1,0.2-0.1,0.3c0,0.1-0.1,0.2-0.2,0.3c-0.1,0.1-0.1,0.2-0.2,0.3c-0.1,0.1-0.1,0.2-0.2,0.3c-0.1,0.1-0.1,0.2-0.2,0.3
			c-0.1,0.1-0.1,0.2-0.2,0.2c-0.1,0.1-0.1,0.2-0.2,0.2c-0.1,0.1-0.1,0.2-0.2,0.2c-0.1,0.1-0.1,0.2-0.2,0.2c-0.1,0.1-0.1,0.1-0.2,0.2
			c-0.1,0.1-0.1,0.2-0.2,0.2c-0.1,0.1-0.1,0.1-0.2,0.2c-0.1,0.1-0.1,0.1-0.2,0.2c-0.1,0.1-0.1,0.1-0.2,0.2l0,0
			c-0.1,0.1-0.1,0.1-0.2,0.2c-0.1,0.1-0.1,0.1-0.2,0.2l0,0c-0.1,0.1-0.1,0.1-0.2,0.2c-0.1,0.1-0.1,0.1-0.2,0.2l-0.1,0
			c-0.1,0.1-0.1,0.1-0.2,0.2c-0.1,0.1-0.1,0.1-0.2,0.2l-0.1,0c-0.1,0-0.1,0.1-0.2,0.1c-0.1,0-0.1,0.1-0.2,0.1l-0.1,0.1
			c-0.1,0-0.1,0.1-0.2,0.1c-0.1,0-0.1,0.1-0.2,0.1l-0.1,0.1c-0.1,0-0.1,0.1-0.2,0.1c-0.1,0-0.1,0.1-0.2,0.1l-0.1,0.1
			c-0.1,0-0.1,0.1-0.2,0.1c-0.1,0-0.1,0.1-0.2,0.1l-0.1,0.1c-0.1,0-0.1,0.1-0.2,0.1c-0.1,0-0.2,0.1-0.2,0.1L41.2,50
			C41.2,50,41.1,50,41,50c-0.1,0-0.2,0.1-0.2,0.1l-0.2,0.1c-0.1,0-0.1,0-0.2,0.1c-0.1,0-0.2,0-0.3,0.1l-0.1,0c-0.1,0-0.1,0-0.2,0.1
			c-0.1,0-0.2,0-0.3,0.1l-0.2,0c-0.1,0-0.1,0-0.2,0c-0.1,0-0.2,0-0.3,0l-0.2,0c-0.1,0-0.1,0-0.2,0c-0.1,0-0.2,0-0.3,0l-0.2,0
			c-0.1,0-0.1,0-0.2,0c-0.1,0-0.2,0-0.4,0l-0.1,0c0,0-0.1,0-0.1,0c-0.2,0-0.4,0-0.7,0c-7.1,0-12.8-5.7-12.8-12.8v-0.6h0
			c0.3-6.6,5.6-11.9,12.2-12.2v-7c0,0-0.1,0-0.1,0l-0.1,0c-0.1,0-0.1,0-0.2,0c-0.1,0-0.1,0-0.2,0l-0.1,0c-0.1,0-0.1,0-0.2,0
			c-0.1,0-0.1,0-0.2,0l-0.1,0c-0.1,0-0.1,0-0.2,0c-0.1,0-0.2,0-0.3,0c-0.1,0-0.2,0-0.2,0c-0.1,0-0.2,0-0.2,0l-0.1,0
			c-0.1,0-0.1,0-0.2,0c-0.1,0-0.2,0-0.2,0l-0.1,0c-0.1,0-0.1,0-0.2,0c-0.1,0-0.2,0-0.3,0l0,0c-0.1,0-0.1,0-0.2,0
			c-0.1,0-0.2,0-0.3,0.1l0,0c-0.1,0-0.1,0-0.2,0c-0.1,0-0.2,0-0.3,0.1l0,0c-0.1,0-0.1,0-0.2,0c-0.1,0-0.2,0-0.3,0.1l0,0
			c-0.1,0-0.1,0-0.2,0c-0.1,0-0.2,0-0.3,0.1c-0.1,0-0.1,0-0.2,0.1c-0.1,0-0.2,0.1-0.3,0.1c-0.1,0-0.1,0-0.2,0.1
			c-0.1,0-0.2,0.1-0.3,0.1c-0.1,0-0.1,0-0.2,0.1c-0.1,0-0.2,0.1-0.3,0.1l0,0c-0.1,0-0.1,0-0.2,0.1c-0.1,0-0.2,0.1-0.3,0.1
			c-0.1,0-0.1,0.1-0.2,0.1c-0.1,0-0.2,0.1-0.3,0.1c-0.1,0-0.1,0.1-0.2,0.1c-0.1,0-0.2,0.1-0.3,0.1c-0.1,0-0.1,0.1-0.2,0.1
			c-0.1,0-0.2,0.1-0.3,0.1l-0.2,0.1c-0.1,0-0.2,0.1-0.2,0.1c-0.1,0-0.1,0.1-0.2,0.1c-0.1,0-0.2,0.1-0.2,0.1c-0.1,0-0.1,0.1-0.2,0.1
			c-0.1,0-0.2,0.1-0.2,0.1c-0.1,0-0.1,0.1-0.2,0.1c-0.1,0-0.2,0.1-0.2,0.1c-0.1,0-0.1,0.1-0.2,0.1c-0.1,0-0.2,0.1-0.2,0.2
			c-0.1,0-0.1,0.1-0.2,0.1c-0.1,0.1-0.2,0.1-0.2,0.2c-0.1,0-0.1,0.1-0.2,0.1c-0.1,0.1-0.2,0.1-0.2,0.2C25.1,22,25,22,25,22.1
			c-0.1,0.1-0.2,0.1-0.2,0.2c-0.1,0-0.1,0.1-0.2,0.1c-0.1,0.1-0.1,0.1-0.2,0.2l-0.2,0.1c-0.1,0.1-0.1,0.1-0.2,0.2
			c0,0-0.1,0.1-0.1,0.1c-0.1,0.1-0.1,0.1-0.2,0.2l-0.1,0.1c-0.1,0.1-0.1,0.1-0.2,0.2c0,0-0.1,0.1-0.1,0.1c-0.1,0.1-0.1,0.1-0.2,0.2
			c0,0-0.1,0.1-0.1,0.1c-0.1,0.1-0.1,0.1-0.2,0.2l-0.1,0.1c-0.1,0.1-0.1,0.1-0.2,0.2l-0.1,0.1c-0.1,0.1-0.1,0.1-0.2,0.2l-0.1,0.1
			c-0.1,0.1-0.1,0.1-0.2,0.2c0,0-0.1,0.1-0.1,0.1l0,0c-0.1,0.1-0.1,0.1-0.2,0.2c0,0-0.1,0.1-0.1,0.1l0,0c-0.1,0.1-0.1,0.1-0.2,0.2
			L20.9,26c-0.1,0.1-0.1,0.1-0.2,0.2c0,0-0.1,0.1-0.1,0.1l0,0c-0.1,0.1-0.1,0.1-0.2,0.2c0,0.1-0.1,0.1-0.1,0.2
			c-0.1,0.1-0.1,0.1-0.2,0.2c0,0-0.1,0.1-0.1,0.1l0,0.1c0,0.1-0.1,0.1-0.1,0.2c0,0-0.1,0.1-0.1,0.1l0,0.1c0,0.1-0.1,0.1-0.1,0.2
			c0,0-0.1,0.1-0.1,0.1l0,0c-0.1,0.1-0.1,0.2-0.1,0.2c0,0-0.1,0.1-0.1,0.1l0,0.1c0,0.1-0.1,0.1-0.1,0.2c0,0.1-0.1,0.1-0.1,0.2
			c0,0.1-0.1,0.2-0.1,0.2c0,0,0,0.1-0.1,0.1l0,0.1c0,0.1-0.1,0.1-0.1,0.2c0,0.1,0,0.1-0.1,0.2l0,0.1c0,0.1-0.1,0.1-0.1,0.2
			c0,0,0,0.1-0.1,0.1l0,0.1c0,0.1-0.1,0.1-0.1,0.2c0,0,0,0.1-0.1,0.1l-0.1,0.1c0,0.1,0,0.1-0.1,0.2c0,0.1,0,0.1-0.1,0.2l0,0.1
			c0,0.1,0,0.1-0.1,0.2c0,0.1,0,0.1-0.1,0.2l0,0.1c0,0.1,0,0.1-0.1,0.2c0,0.1,0,0.1-0.1,0.2l0,0.1c0,0.1,0,0.1-0.1,0.2
			c0,0.1,0,0.1,0,0.2l0,0.1c0,0.1,0,0.1-0.1,0.2c0,0,0,0.1,0,0.1l0,0.2c0,0.1,0,0.1,0,0.2c0,0.1,0,0.1,0,0.2l0,0.2
			c0,0.1,0,0.1,0,0.2c0,0.1,0,0.1,0,0.2l0,0.1c0,0.1,0,0.1,0,0.2c0,0.1,0,0.1,0,0.2l0,0.1c0,0.1,0,0.1,0,0.2c0,0.1,0,0.1,0,0.2
			l0,0.1c0,0.1,0,0.1,0,0.2c0,0.1,0,0.1,0,0.2l0,0.1c0,0.1,0,0.1,0,0.2c0,0.1,0,0.1,0,0.2l0,0.1c0,0.1,0,0.1,0,0.2
			c0,0.1,0,0.1,0,0.2l0,0.1c0,0,0,0.1,0,0.1c0,0.1,0,0.1,0,0.2l0,0.2c0,0,0,0.1,0,0.1c0,0.1,0,0.2,0,0.3l0,0.1c0,0,0,0.1,0,0.1
			c0,0.2,0,0.3,0,0.5c0,10.9,8.9,19.8,19.8,19.8c10.6,0,19.5-8.6,19.8-19.2h-7c0,0.1,0,0.2,0,0.3c0,0.1,0,0.2,0,0.3v0
			c0,0.1,0,0.2,0,0.3c0,0.1,0,0.2,0,0.3c0,0.1,0,0.2,0,0.3c0,0.1,0,0.2-0.1,0.3c0,0.1,0,0.2-0.1,0.3c0,0.1,0,0.2-0.1,0.3
			C49.1,41.2,49.1,41.3,49,41.4z"/>
		<path class="st0" d="M32.1,38.6h-7c0,0.1,0,0.1,0,0.2v0c0,0.1,0,0.2,0,0.3c0,0.1,0,0.2,0,0.3c0,0.1,0,0.2,0,0.3c0,0.1,0,0.2,0,0.3
			c0,0.1,0,0.2,0.1,0.3c0,0.1,0,0.2,0.1,0.3c0,0.1,0,0.2,0.1,0.3c0,0.1,0,0.2,0.1,0.3c0,0.1,0.1,0.2,0.1,0.3c0,0.1,0.1,0.2,0.1,0.3
			c0,0.1,0.1,0.2,0.1,0.3c0,0.1,0.1,0.2,0.1,0.3c0,0.1,0.1,0.2,0.1,0.3c0,0.1,0.1,0.2,0.1,0.3c0,0.1,0.1,0.2,0.1,0.3
			c0,0.1,0.1,0.2,0.1,0.3c0,0.1,0.1,0.2,0.1,0.3c0,0.1,0.1,0.2,0.1,0.2c0,0.1,0.1,0.2,0.1,0.2c0,0.1,0.1,0.2,0.1,0.2
			c0,0.1,0.1,0.2,0.2,0.2c0.1,0.1,0.1,0.2,0.2,0.2c0.1,0.1,0.1,0.2,0.2,0.2c0.1,0.1,0.1,0.1,0.2,0.2c0.1,0.1,0.1,0.1,0.2,0.2
			c0.1,0.1,0.1,0.1,0.2,0.2c0.1,0.1,0.1,0.1,0.2,0.2c0.1,0.1,0.1,0.1,0.2,0.2c0.1,0.1,0.1,0.1,0.2,0.2c0.1,0.1,0.1,0.1,0.2,0.2
			c0.1,0.1,0.1,0.1,0.2,0.2c0.1,0.1,0.1,0.1,0.2,0.2c0.1,0.1,0.1,0.1,0.2,0.2l0,0c0.1,0.1,0.1,0.1,0.2,0.2c0.1,0.1,0.1,0.1,0.2,0.2
			l0.1,0c0.1,0,0.1,0.1,0.2,0.1c0.1,0.1,0.1,0.1,0.2,0.1l0.1,0c0.1,0,0.1,0.1,0.2,0.1c0.1,0,0.1,0.1,0.2,0.1l0.1,0
			c0.1,0,0.1,0.1,0.2,0.1c0.1,0,0.1,0.1,0.2,0.1l0.1,0.1c0.1,0,0.1,0.1,0.2,0.1c0.1,0,0.1,0.1,0.2,0.1l0.1,0.1
			c0.1,0,0.1,0.1,0.2,0.1c0.1,0,0.1,0.1,0.2,0.1l0.1,0c0.1,0,0.1,0.1,0.2,0.1c0.1,0,0.1,0.1,0.2,0.1l0.1,0.1c0.1,0,0.1,0,0.2,0.1
			c0.1,0,0.1,0.1,0.2,0.1l0.1,0c0.1,0,0.1,0,0.2,0.1c0.1,0,0.1,0,0.2,0.1l0.2,0c0.1,0,0.1,0,0.2,0c0.1,0,0.1,0,0.2,0.1l0.2,0
			c0.1,0,0.1,0,0.2,0c0.1,0,0.2,0,0.2,0l0.2,0c0.1,0,0.1,0,0.2,0c0.1,0,0.2,0,0.3,0l0.2,0c0,0,0.1,0,0.1,0c0.1,0,0.2,0,0.3,0l0.1,0
			c0,0,0.1,0,0.1,0c0.2,0,0.4,0,0.6,0c6.4,0,11.7-5.2,11.7-11.7c0-6.3-4.9-11.3-11.1-11.6v7c2.3,0.3,4.1,2.3,4.1,4.6
			c0,2.6-2.1,4.6-4.6,4.6C34.4,42.6,32.4,40.9,32.1,38.6z"/>
	</g>
	<g>
		<text transform="matrix(1 0 0 1 70.8905 33.7642)"><tspan x="0" y="0" class="st1 st2 st3">Departamento</tspan><tspan x="0" y="21.5" class="st1 st4 st3">de Informática</tspan></text>
	</g>
</g>
</svg>
