<?xml version="1.0" encoding="utf-8"?>
<!-- Generator: Adobe Illustrator 22.1.0, SVG Export Plug-In . SVG Version: 6.00 Build 0)  -->
<svg version="1.1" id="Camada_1" xmlns="http://www.w3.org/2000/svg" xmlns:xlink="http://www.w3.org/1999/xlink" x="0px" y="0px"
	 viewBox="0 0 204 76" style="enable-background:new 0 0 204 76;" xml:space="preserve">
<style type="text/css">
	.st0{fill:#4366A1;}
	.st1{fill:#223351;}
</style>
<g>
	<g>
		<g>
			<path class="st0" d="M58.7,65.2C44.5,64.9,33,53.5,32.3,39.4C31.5,23.7,44,10.8,59.5,10.8c7.2,0,13.8,2.8,18.7,7.4
				c0.5,0.5,1.4,0.6,2,0.2l0,0c0.9-0.6,1-1.8,0.2-2.5C74.8,10.6,67.3,7.4,59,7.5c-16.9,0.2-30.3,14.1-30,31
				c0.3,16.6,13.8,30,30.5,30c8.1,0,15.5-3.2,20.9-8.3c0.7-0.6,0.6-1.7-0.2-2.3v0c-0.7-0.5-1.7-0.4-2.3,0.2
				C72.9,62.7,66.1,65.4,58.7,65.2z"/>
			<path class="st0" d="M59.5,71.5c-18.3,0-33.2-14.7-33.5-33C25.7,20,40.7,4.7,59.2,4.5c9.5-0.1,18.1,3.8,24.2,10.1
				c0.5,0.6,1.4,0.6,2,0.2l0,0c0.8-0.6,1-1.7,0.3-2.5c-0.1-0.1-0.2-0.2-0.3-0.3C78.5,5.1,69.3,1.3,59.5,1.3s-19,3.8-25.9,10.7
				C26.6,19,22.8,28.2,22.8,38c0,9.8,3.8,19,10.7,25.9c6.9,6.9,16.1,10.7,25.9,10.7s19-3.8,25.9-10.7c0.1-0.1,0.3-0.3,0.4-0.4
				c0.6-0.6,0.5-1.6-0.2-2.1l0,0c-0.8-0.5-1.8-0.4-2.4,0.3C77.1,67.7,68.7,71.5,59.5,71.5z"/>
		</g>
		<g>
			<path class="st1" d="M53.7,32.1c0-1.2-1-2.3-2.3-2.3h-4.4c-3.5,0-6.4,2.9-6.4,6.4v15.4c0,1.2,1,2.3,2.3,2.3c1.2,0,2.3-1,2.3-2.3
				V36.3c0-1,0.8-1.9,1.9-1.9h4.4C52.7,34.4,53.7,33.4,53.7,32.1z"/>
			<path class="st1" d="M51.4,22.1h-8.8c-1.2,0-2.3,1-2.3,2.3c0,1.2,1,2.3,2.3,2.3h8.8c3.1,0,5.5,2.5,5.5,5.5c0,3.1-2.5,5.5-5.5,5.5
				h-1.5c-1.2,0-2.3,1-2.3,2.3c0,1.2,1,2.3,2.3,2.3h1.5c5.5,0,10.1-4.5,10.1-10.1S57,22.1,51.4,22.1z"/>
			<path class="st1" d="M83.5,22.1h-2.8h-4.9h-4.4c-0.9,0-1.8,0.2-2.6,0.6c-2.2,1-3.8,3.2-3.8,5.8v3.6v11.8v3.6
				c0,2.6,1.5,4.8,3.8,5.8c0.8,0.4,1.7,0.6,2.6,0.6h4.4h4.9h2.8c1.2,0,2.2-1,2.3-2.2c0,0,0,0,0-0.1v0c0,0,0,0,0,0
				c0-1.2-1-2.2-2.3-2.2h-2.7h-5c0,0,0,0,0,0h-4h-0.4c-1,0-1.9-0.8-1.9-1.9v-0.4v-3.2V32.1v-3.2v-0.4c0-1,0.8-1.9,1.9-1.9h0.4h4
				c0,0,0,0,0,0h5h2.7c1.2,0,2.2-1,2.3-2.2c0,0,0,0,0,0v0c0,0,0,0,0-0.1C85.7,23.1,84.7,22.1,83.5,22.1z"/>
			<path class="st0" d="M72.9,35.7c-1.2,0-2.3,1-2.3,2.3c0,1.2,1,2.3,2.3,2.3h5.3c1.2,0,2.3-1,2.3-2.3c0-1.2-1-2.3-2.3-2.3H72.9z"/>
			<path class="st1" d="M95.6,22.1h-4.1c-1.2,0-2.3,1-2.3,2.3s1,2.3,2.3,2.3h4.1c1.2,0,2.3-1,2.3-2.3S96.8,22.1,95.6,22.1z"/>
			<path class="st1" d="M107.7,22.1h-3.5c-2.9,0-5.3,1.9-6.1,4.5c-0.2,0.6-0.3,1.2-0.3,1.9v23.1c0,1.2,1,2.3,2.3,2.3h0
				c1.2,0,2.3-1,2.3-2.3V28.5c0-1,0.8-1.9,1.9-1.9h3v0h0.5c1.2,0,2.3-1,2.3-2.3S109,22.1,107.7,22.1z"/>
		</g>
	</g>
	<g>
		<path class="st0" d="M109.2,31.1c0.3,0.3,0.4,0.6,0.4,1.2c0,0.5-0.2,0.9-0.5,1.1c-0.3,0.2-0.8,0.4-1.4,0.4H107V35h-0.7v-4.3h1.5
			C108.4,30.7,108.9,30.8,109.2,31.1z M108.7,32.9c0.1-0.2,0.2-0.4,0.2-0.7c0-0.3-0.1-0.5-0.3-0.6c-0.2-0.1-0.5-0.2-0.9-0.2H107v1.7
			h0.8C108.3,33.1,108.6,33,108.7,32.9z"/>
		<path class="st0" d="M112.1,32.4c-0.3,0-0.6,0.1-0.8,0.3c-0.2,0.2-0.3,0.5-0.3,0.9V35h-0.7v-3.3h0.7v0.7c0.1-0.2,0.3-0.4,0.5-0.5
			c0.2-0.1,0.4-0.2,0.6-0.2L112.1,32.4C112.2,32.4,112.1,32.4,112.1,32.4z"/>
		<path class="st0" d="M115.5,34.6c-0.3,0.3-0.7,0.5-1.2,0.5c-0.5,0-0.9-0.2-1.2-0.5c-0.3-0.3-0.5-0.7-0.5-1.2
			c0-0.5,0.2-0.9,0.5-1.2c0.3-0.3,0.7-0.5,1.2-0.5c0.5,0,0.9,0.2,1.2,0.5c0.3,0.3,0.5,0.7,0.5,1.2C116,33.9,115.9,34.3,115.5,34.6z
			 M113.6,34.2c0.2,0.2,0.4,0.3,0.7,0.3c0.3,0,0.5-0.1,0.7-0.3c0.2-0.2,0.3-0.5,0.3-0.8c0-0.3-0.1-0.6-0.3-0.8
			c-0.2-0.2-0.4-0.3-0.7-0.3c-0.3,0-0.5,0.1-0.7,0.3c-0.2,0.2-0.3,0.5-0.3,0.8C113.3,33.7,113.4,34,113.6,34.2z"/>
		<path class="st0" d="M119.8,31.8v2.9c0,0.6-0.2,1-0.5,1.3s-0.7,0.4-1.2,0.4c-0.5,0-0.9-0.2-1.3-0.5l0.3-0.5c0.3,0.2,0.6,0.4,1,0.4
			c0.3,0,0.6-0.1,0.8-0.3s0.3-0.4,0.3-0.8v-0.4c-0.1,0.2-0.2,0.3-0.4,0.5c-0.2,0.1-0.4,0.2-0.6,0.2c-0.4,0-0.8-0.2-1.1-0.5
			c-0.3-0.3-0.4-0.7-0.4-1.1c0-0.5,0.1-0.8,0.4-1.1c0.3-0.3,0.6-0.5,1.1-0.5s0.8,0.2,1.1,0.5v-0.5H119.8z M117.3,33.3
			c0,0.3,0.1,0.5,0.2,0.7s0.4,0.3,0.7,0.3c0.3,0,0.5-0.1,0.7-0.3c0.2-0.2,0.3-0.4,0.3-0.7c0-0.3-0.1-0.5-0.3-0.7
			c-0.2-0.2-0.4-0.3-0.7-0.3c-0.3,0-0.5,0.1-0.7,0.3C117.4,32.8,117.3,33,117.3,33.3z"/>
		<path class="st0" d="M122.5,32.4c-0.3,0-0.6,0.1-0.8,0.3c-0.2,0.2-0.3,0.5-0.3,0.9V35h-0.7v-3.3h0.7v0.7c0.1-0.2,0.3-0.4,0.5-0.5
			c0.2-0.1,0.4-0.2,0.6-0.2L122.5,32.4C122.6,32.4,122.6,32.4,122.5,32.4z"/>
		<path class="st0" d="M125.9,35h-0.6v-0.4c-0.3,0.3-0.6,0.5-1.1,0.5c-0.3,0-0.6-0.1-0.8-0.3c-0.2-0.2-0.3-0.5-0.3-0.8
			c0-0.3,0.1-0.6,0.4-0.7c0.2-0.2,0.6-0.2,1-0.2h0.9v-0.1c0-0.4-0.2-0.7-0.7-0.7c-0.3,0-0.6,0.1-0.9,0.3l-0.3-0.4
			c0.4-0.3,0.8-0.5,1.4-0.5c0.4,0,0.7,0.1,0.9,0.3c0.2,0.2,0.4,0.5,0.4,0.9V35z M125.2,33.8v-0.3h-0.8c-0.5,0-0.7,0.2-0.7,0.5
			c0,0.2,0.1,0.3,0.2,0.4c0.1,0.1,0.3,0.1,0.5,0.1c0.2,0,0.4-0.1,0.6-0.2C125.1,34.2,125.2,34,125.2,33.8z"/>
		<path class="st0" d="M127.5,33.3V35h-0.7v-3.3h0.7v0.6c0.1-0.2,0.2-0.4,0.4-0.5c0.2-0.1,0.4-0.2,0.6-0.2c0.5,0,0.9,0.2,1.1,0.6
			c0.3-0.4,0.7-0.6,1.2-0.6c0.4,0,0.7,0.1,0.9,0.3c0.2,0.2,0.3,0.6,0.3,1v2h-0.7v-1.8c0-0.6-0.3-0.9-0.8-0.9c-0.2,0-0.4,0.1-0.6,0.2
			s-0.3,0.4-0.3,0.7V35h-0.7v-1.8c0-0.3-0.1-0.5-0.2-0.7c-0.1-0.1-0.3-0.2-0.5-0.2s-0.4,0.1-0.6,0.2
			C127.6,32.7,127.5,32.9,127.5,33.3z"/>
		<path class="st0" d="M135.7,35h-0.6v-0.4c-0.3,0.3-0.6,0.5-1.1,0.5c-0.3,0-0.6-0.1-0.8-0.3c-0.2-0.2-0.3-0.5-0.3-0.8
			c0-0.3,0.1-0.6,0.4-0.7c0.2-0.2,0.6-0.2,1-0.2h0.9v-0.1c0-0.4-0.2-0.7-0.7-0.7c-0.3,0-0.6,0.1-0.9,0.3l-0.3-0.4
			c0.4-0.3,0.8-0.5,1.4-0.5c0.4,0,0.7,0.1,0.9,0.3c0.2,0.2,0.4,0.5,0.4,0.9V35z M135.1,33.8v-0.3h-0.8c-0.5,0-0.7,0.2-0.7,0.5
			c0,0.2,0.1,0.3,0.2,0.4s0.3,0.1,0.5,0.1c0.2,0,0.4-0.1,0.6-0.2C135,34.2,135.1,34,135.1,33.8z"/>
		<path class="st0" d="M138.6,34.6c-0.3-0.3-0.5-0.7-0.5-1.2c0-0.5,0.2-0.9,0.5-1.2c0.3-0.3,0.7-0.5,1.1-0.5c0.4,0,0.8,0.2,1.1,0.6
			v-1.8h0.7V35h-0.7v-0.5c-0.3,0.4-0.6,0.5-1.1,0.5C139.3,35.1,139,34.9,138.6,34.6z M138.9,33.4c0,0.3,0.1,0.6,0.3,0.8
			c0.2,0.2,0.4,0.3,0.7,0.3c0.3,0,0.5-0.1,0.7-0.3c0.2-0.2,0.3-0.5,0.3-0.8s-0.1-0.6-0.3-0.8c-0.2-0.2-0.4-0.3-0.7-0.3
			c-0.3,0-0.5,0.1-0.7,0.3C139,32.8,138.9,33.1,138.9,33.4z"/>
		<path class="st0" d="M145.6,33.7H143c0,0.2,0.1,0.4,0.3,0.6c0.2,0.1,0.4,0.2,0.7,0.2c0.4,0,0.7-0.1,0.9-0.4l0.4,0.4
			c-0.4,0.4-0.8,0.5-1.4,0.5c-0.5,0-0.9-0.2-1.2-0.5c-0.3-0.3-0.5-0.7-0.5-1.2c0-0.5,0.2-0.9,0.5-1.2c0.3-0.3,0.7-0.5,1.2-0.5
			c0.4,0,0.8,0.1,1.1,0.4c0.3,0.3,0.5,0.6,0.5,1.1V33.7z M143,33.1h1.9c0-0.3-0.1-0.5-0.3-0.6c-0.2-0.1-0.4-0.2-0.6-0.2
			c-0.3,0-0.5,0.1-0.7,0.2C143.1,32.7,143,32.9,143,33.1z"/>
		<path class="st0" d="M109.3,38.1v0.7H107v1.1h2.1v0.6H107v1.2h2.4v0.7h-3.1v-4.3H109.3z"/>
		<path class="st0" d="M110.5,42c-0.3-0.3-0.5-0.7-0.5-1.2c0-0.5,0.2-0.9,0.5-1.2c0.3-0.3,0.7-0.5,1.1-0.5c0.4,0,0.8,0.2,1.1,0.6
			v-1.8h0.7v4.6h-0.7v-0.5c-0.3,0.4-0.6,0.5-1.1,0.5C111.2,42.5,110.8,42.3,110.5,42z M110.7,40.8c0,0.3,0.1,0.6,0.3,0.8
			c0.2,0.2,0.4,0.3,0.7,0.3c0.3,0,0.5-0.1,0.7-0.3c0.2-0.2,0.3-0.5,0.3-0.8c0-0.3-0.1-0.6-0.3-0.8c-0.2-0.2-0.4-0.3-0.7-0.3
			c-0.3,0-0.5,0.1-0.7,0.3C110.8,40.2,110.7,40.5,110.7,40.8z"/>
		<path class="st0" d="M116.7,40.9v-1.8h0.7v3.3h-0.7v-0.6c-0.1,0.2-0.3,0.4-0.5,0.5c-0.2,0.1-0.4,0.2-0.6,0.2
			c-0.4,0-0.7-0.1-0.9-0.3c-0.2-0.2-0.3-0.6-0.3-1v-2h0.7v1.8c0,0.6,0.3,0.9,0.8,0.9c0.2,0,0.4-0.1,0.6-0.2
			C116.6,41.4,116.7,41.2,116.7,40.9z"/>
		<path class="st0" d="M119.8,42.5c-0.5,0-0.8-0.2-1.2-0.5c-0.3-0.3-0.5-0.7-0.5-1.2c0-0.5,0.2-0.9,0.5-1.2c0.3-0.3,0.8-0.5,1.3-0.5
			c0.5,0,0.9,0.2,1.2,0.5l-0.4,0.5c-0.3-0.2-0.6-0.4-0.9-0.4s-0.5,0.1-0.7,0.3c-0.2,0.2-0.3,0.4-0.3,0.7s0.1,0.6,0.3,0.8
			c0.2,0.2,0.5,0.3,0.8,0.3c0.3,0,0.6-0.1,0.9-0.4l0.4,0.4C120.8,42.3,120.3,42.5,119.8,42.5z"/>
		<path class="st0" d="M124.5,42.4h-0.6V42c-0.3,0.3-0.6,0.5-1.1,0.5c-0.3,0-0.6-0.1-0.8-0.3c-0.2-0.2-0.3-0.5-0.3-0.8
			c0-0.3,0.1-0.6,0.4-0.7c0.2-0.2,0.6-0.2,1-0.2h0.9v-0.1c0-0.4-0.2-0.7-0.7-0.7c-0.3,0-0.6,0.1-0.9,0.3l-0.3-0.4
			c0.4-0.3,0.8-0.5,1.4-0.5c0.4,0,0.7,0.1,0.9,0.3c0.2,0.2,0.4,0.5,0.4,0.9V42.4z M123.8,41.2v-0.3H123c-0.5,0-0.7,0.2-0.7,0.5
			c0,0.2,0.1,0.3,0.2,0.4s0.3,0.1,0.5,0.1c0.2,0,0.4-0.1,0.6-0.2S123.8,41.4,123.8,41.2z"/>
		<path class="st0" d="M127.5,43.1c0,0.2-0.1,0.3-0.2,0.4c-0.1,0.1-0.3,0.2-0.5,0.2c-0.2,0-0.4,0-0.5-0.1l0.2-0.4
			c0.1,0,0.2,0.1,0.2,0.1c0.1,0,0.1,0,0.2-0.1c0,0,0.1-0.1,0.1-0.2c0-0.1,0-0.1-0.1-0.2c0-0.1-0.1-0.1-0.2-0.1s-0.1,0-0.2,0l0.2-0.4
			c-0.4,0-0.8-0.2-1-0.5c-0.3-0.3-0.4-0.7-0.4-1.2s0.2-0.9,0.5-1.2c0.3-0.3,0.8-0.5,1.3-0.5c0.5,0,0.9,0.2,1.2,0.5l-0.4,0.5
			c-0.3-0.2-0.6-0.4-0.9-0.4s-0.5,0.1-0.7,0.3c-0.2,0.2-0.3,0.4-0.3,0.7s0.1,0.6,0.3,0.8c0.2,0.2,0.5,0.3,0.8,0.3
			c0.3,0,0.6-0.1,0.9-0.4l0.4,0.4c-0.3,0.3-0.7,0.5-1.1,0.6l-0.1,0.2C127.3,42.7,127.5,42.8,127.5,43.1z"/>
		<path class="st0" d="M131.7,42.4H131V42c-0.3,0.3-0.6,0.5-1.1,0.5c-0.3,0-0.6-0.1-0.8-0.3c-0.2-0.2-0.3-0.5-0.3-0.8
			c0-0.3,0.1-0.6,0.4-0.7c0.2-0.2,0.6-0.2,1-0.2h0.9v-0.1c0-0.4-0.2-0.7-0.7-0.7c-0.3,0-0.6,0.1-0.9,0.3l-0.3-0.4
			c0.4-0.3,0.8-0.5,1.4-0.5c0.4,0,0.7,0.1,0.9,0.3c0.2,0.2,0.4,0.5,0.4,0.9V42.4z M130.8,38.7c-0.1,0-0.3,0-0.4-0.1
			c-0.2-0.1-0.3-0.1-0.4-0.1c-0.1,0-0.2,0.1-0.2,0.3h-0.5c0-0.2,0-0.4,0.1-0.6c0.1-0.1,0.2-0.2,0.4-0.2c0.1,0,0.3,0,0.5,0.1
			c0.2,0.1,0.3,0.1,0.4,0.1c0.1,0,0.2-0.1,0.2-0.3h0.5C131.3,38.5,131.1,38.7,130.8,38.7z M131,41.2v-0.3h-0.8
			c-0.5,0-0.7,0.2-0.7,0.5c0,0.2,0.1,0.3,0.2,0.4s0.3,0.1,0.5,0.1c0.2,0,0.4-0.1,0.6-0.2C130.9,41.6,131,41.4,131,41.2z"/>
		<path class="st0" d="M135.4,42c-0.3,0.3-0.7,0.5-1.2,0.5c-0.5,0-0.9-0.2-1.2-0.5c-0.3-0.3-0.5-0.7-0.5-1.2c0-0.5,0.2-0.9,0.5-1.2
			c0.3-0.3,0.7-0.5,1.2-0.5c0.5,0,0.9,0.2,1.2,0.5c0.3,0.3,0.5,0.7,0.5,1.2C135.9,41.2,135.7,41.6,135.4,42z M133.4,41.5
			c0.2,0.2,0.4,0.3,0.7,0.3c0.3,0,0.5-0.1,0.7-0.3c0.2-0.2,0.3-0.5,0.3-0.8c0-0.3-0.1-0.6-0.3-0.8c-0.2-0.2-0.4-0.3-0.7-0.3
			c-0.3,0-0.5,0.1-0.7,0.3c-0.2,0.2-0.3,0.5-0.3,0.8C133.1,41.1,133.2,41.3,133.4,41.5z"/>
		<path class="st0" d="M140.1,38.8v3.6h-0.7v-3.6H138v-0.7h3.3v0.7H140.1z"/>
		<path class="st0" d="M144,40.9v-1.8h0.7v3.3H144v-0.6c-0.1,0.2-0.3,0.4-0.5,0.5c-0.2,0.1-0.4,0.2-0.6,0.2c-0.4,0-0.7-0.1-0.9-0.3
			c-0.2-0.2-0.3-0.6-0.3-1v-2h0.7v1.8c0,0.6,0.3,0.9,0.8,0.9c0.2,0,0.4-0.1,0.6-0.2C143.9,41.4,144,41.2,144,40.9z"/>
		<path class="st0" d="M146.5,39.7v1.7c0,0.2,0,0.3,0.1,0.4c0.1,0.1,0.2,0.1,0.3,0.1c0.1,0,0.3-0.1,0.4-0.2l0.3,0.5
			c-0.2,0.2-0.5,0.3-0.8,0.3c-0.3,0-0.5-0.1-0.8-0.3c-0.2-0.2-0.3-0.5-0.3-0.8v-1.6h-0.4v-0.6h0.4v-1h0.7v1h0.9v0.6H146.5z"/>
		<path class="st0" d="M151,42c-0.3,0.3-0.7,0.5-1.2,0.5c-0.5,0-0.9-0.2-1.2-0.5c-0.3-0.3-0.5-0.7-0.5-1.2c0-0.5,0.2-0.9,0.5-1.2
			c0.3-0.3,0.7-0.5,1.2-0.5c0.5,0,0.9,0.2,1.2,0.5c0.3,0.3,0.5,0.7,0.5,1.2C151.5,41.2,151.3,41.6,151,42z M149,41.5
			c0.2,0.2,0.4,0.3,0.7,0.3c0.3,0,0.5-0.1,0.7-0.3c0.2-0.2,0.3-0.5,0.3-0.8c0-0.3-0.1-0.6-0.3-0.8c-0.2-0.2-0.4-0.3-0.7-0.3
			c-0.3,0-0.5,0.1-0.7,0.3c-0.2,0.2-0.3,0.5-0.3,0.8C148.7,41.1,148.8,41.3,149,41.5z"/>
		<path class="st0" d="M154,39.8c-0.3,0-0.6,0.1-0.8,0.3c-0.2,0.2-0.3,0.5-0.3,0.9v1.4h-0.7v-3.3h0.7v0.7c0.1-0.2,0.3-0.4,0.5-0.5
			c0.2-0.1,0.4-0.2,0.6-0.2L154,39.8C154,39.8,154,39.8,154,39.8z"/>
		<path class="st0" d="M154.7,38.5c-0.1-0.1-0.1-0.2-0.1-0.3c0-0.1,0-0.2,0.1-0.3c0.1-0.1,0.2-0.1,0.3-0.1c0.1,0,0.2,0,0.3,0.1
			s0.1,0.2,0.1,0.3c0,0.1,0,0.2-0.1,0.3c-0.1,0.1-0.2,0.1-0.3,0.1C154.9,38.6,154.8,38.6,154.7,38.5z M155.4,42.4h-0.7v-3.3h0.7
			V42.4z"/>
		<path class="st0" d="M159,42.4h-0.6V42c-0.3,0.3-0.6,0.5-1.1,0.5c-0.3,0-0.6-0.1-0.8-0.3c-0.2-0.2-0.3-0.5-0.3-0.8
			c0-0.3,0.1-0.6,0.4-0.7c0.2-0.2,0.6-0.2,1-0.2h0.9v-0.1c0-0.4-0.2-0.7-0.7-0.7c-0.3,0-0.6,0.1-0.9,0.3l-0.3-0.4
			c0.4-0.3,0.8-0.5,1.4-0.5c0.4,0,0.7,0.1,0.9,0.3c0.2,0.2,0.4,0.5,0.4,0.9V42.4z M158.3,41.2v-0.3h-0.8c-0.5,0-0.7,0.2-0.7,0.5
			c0,0.2,0.1,0.3,0.2,0.4s0.3,0.1,0.5,0.1c0.2,0,0.4-0.1,0.6-0.2C158.3,41.6,158.3,41.4,158.3,41.2z"/>
		<path class="st0" d="M160.7,42.4H160v-4.6h0.7V42.4z"/>
		<path class="st0" d="M108.3,49.1c0.2,0,0.5,0,0.6-0.1c0.2-0.1,0.4-0.2,0.6-0.4l0.5,0.5c-0.5,0.5-1,0.8-1.7,0.8s-1.2-0.2-1.6-0.6
			c-0.4-0.4-0.6-0.9-0.6-1.6s0.2-1.2,0.7-1.6c0.4-0.4,1-0.6,1.7-0.6c0.7,0,1.2,0.2,1.7,0.7l-0.5,0.5c-0.2-0.2-0.4-0.3-0.6-0.4
			c-0.2-0.1-0.4-0.1-0.6-0.1c-0.4,0-0.8,0.1-1.1,0.4c-0.3,0.3-0.4,0.6-0.4,1.1c0,0.4,0.1,0.8,0.4,1.1
			C107.5,49,107.9,49.1,108.3,49.1z"/>
		<path class="st0" d="M110.8,45.9c-0.1-0.1-0.1-0.2-0.1-0.3s0-0.2,0.1-0.3c0.1-0.1,0.2-0.1,0.3-0.1c0.1,0,0.2,0,0.3,0.1
			c0.1,0.1,0.1,0.2,0.1,0.3s0,0.2-0.1,0.3c-0.1,0.1-0.2,0.1-0.3,0.1C111,46,110.9,46,110.8,45.9z M111.4,49.8h-0.7v-3.3h0.7V49.8z"
			/>
		<path class="st0" d="M115.5,48.5h-2.6c0,0.2,0.1,0.4,0.3,0.6c0.2,0.1,0.4,0.2,0.7,0.2c0.4,0,0.7-0.1,0.9-0.4l0.4,0.4
			c-0.4,0.4-0.8,0.5-1.4,0.5c-0.5,0-0.9-0.2-1.2-0.5c-0.3-0.3-0.5-0.7-0.5-1.2c0-0.5,0.2-0.9,0.5-1.2c0.3-0.3,0.7-0.5,1.2-0.5
			c0.4,0,0.8,0.1,1.1,0.4c0.3,0.3,0.5,0.6,0.5,1.1V48.5z M113.6,45.3h0.6l0.8,0.8h-0.6l-0.5-0.3l-0.5,0.3h-0.6L113.6,45.3z
			 M112.9,47.9h1.9c0-0.3-0.1-0.5-0.3-0.6c-0.2-0.1-0.4-0.2-0.6-0.2c-0.3,0-0.5,0.1-0.7,0.2C113,47.4,112.9,47.7,112.9,47.9z"/>
		<path class="st0" d="M116.9,48v1.8h-0.7v-3.3h0.7v0.6c0.1-0.2,0.3-0.4,0.5-0.5c0.2-0.1,0.4-0.2,0.6-0.2c0.4,0,0.7,0.1,0.9,0.3
			c0.2,0.2,0.3,0.6,0.3,1v2h-0.7V48c0-0.6-0.3-0.9-0.8-0.9c-0.2,0-0.4,0.1-0.6,0.2C117,47.5,116.9,47.7,116.9,48z"/>
		<path class="st0" d="M121.7,49.8c-0.5,0-0.8-0.2-1.2-0.5c-0.3-0.3-0.5-0.7-0.5-1.2c0-0.5,0.2-0.9,0.5-1.2c0.3-0.3,0.8-0.5,1.3-0.5
			c0.5,0,0.9,0.2,1.2,0.5l-0.4,0.5c-0.3-0.2-0.6-0.4-0.9-0.4s-0.5,0.1-0.7,0.3c-0.2,0.2-0.3,0.4-0.3,0.7s0.1,0.6,0.3,0.8
			c0.2,0.2,0.5,0.3,0.8,0.3c0.3,0,0.6-0.1,0.9-0.4l0.4,0.4C122.6,49.6,122.2,49.8,121.7,49.8z"/>
		<path class="st0" d="M123.8,45.9c-0.1-0.1-0.1-0.2-0.1-0.3s0-0.2,0.1-0.3c0.1-0.1,0.2-0.1,0.3-0.1c0.1,0,0.2,0,0.3,0.1
			c0.1,0.1,0.1,0.2,0.1,0.3s0,0.2-0.1,0.3c-0.1,0.1-0.2,0.1-0.3,0.1C124,46,123.9,46,123.8,45.9z M124.4,49.8h-0.7v-3.3h0.7V49.8z"
			/>
		<path class="st0" d="M128.1,49.8h-0.6v-0.4c-0.3,0.3-0.6,0.5-1.1,0.5c-0.3,0-0.6-0.1-0.8-0.3c-0.2-0.2-0.3-0.5-0.3-0.8
			c0-0.3,0.1-0.6,0.4-0.7c0.2-0.2,0.6-0.2,1-0.2h0.9v-0.1c0-0.4-0.2-0.7-0.7-0.7c-0.3,0-0.6,0.1-0.9,0.3l-0.3-0.4
			c0.4-0.3,0.8-0.5,1.4-0.5c0.4,0,0.7,0.1,0.9,0.3c0.2,0.2,0.4,0.5,0.4,0.9V49.8z M127.4,48.6v-0.3h-0.8c-0.5,0-0.7,0.2-0.7,0.5
			c0,0.2,0.1,0.3,0.2,0.4c0.1,0.1,0.3,0.1,0.5,0.1c0.2,0,0.4-0.1,0.6-0.2C127.3,48.9,127.4,48.8,127.4,48.6z"/>
		<path class="st0" d="M132.7,49.4c-0.3-0.3-0.5-0.7-0.5-1.2c0-0.5,0.2-0.9,0.5-1.2c0.3-0.3,0.7-0.5,1.1-0.5c0.4,0,0.8,0.2,1.1,0.6
			v-1.8h0.7v4.6h-0.7v-0.5c-0.3,0.4-0.6,0.5-1.1,0.5C133.3,49.8,133,49.7,132.7,49.4z M132.9,48.2c0,0.3,0.1,0.6,0.3,0.8
			c0.2,0.2,0.4,0.3,0.7,0.3c0.3,0,0.5-0.1,0.7-0.3c0.2-0.2,0.3-0.5,0.3-0.8s-0.1-0.6-0.3-0.8c-0.2-0.2-0.4-0.3-0.7-0.3
			c-0.3,0-0.5,0.1-0.7,0.3C133,47.6,132.9,47.9,132.9,48.2z"/>
		<path class="st0" d="M139.2,49.8h-0.6v-0.4c-0.3,0.3-0.6,0.5-1.1,0.5c-0.3,0-0.6-0.1-0.8-0.3c-0.2-0.2-0.3-0.5-0.3-0.8
			c0-0.3,0.1-0.6,0.4-0.7c0.2-0.2,0.6-0.2,1-0.2h0.9v-0.1c0-0.4-0.2-0.7-0.7-0.7c-0.3,0-0.6,0.1-0.9,0.3l-0.3-0.4
			c0.4-0.3,0.8-0.5,1.4-0.5c0.4,0,0.7,0.1,0.9,0.3c0.2,0.2,0.4,0.5,0.4,0.9V49.8z M138.5,48.6v-0.3h-0.8c-0.5,0-0.7,0.2-0.7,0.5
			c0,0.2,0.1,0.3,0.2,0.4s0.3,0.1,0.5,0.1c0.2,0,0.4-0.1,0.6-0.2C138.4,48.9,138.5,48.8,138.5,48.6z"/>
		<path class="st0" d="M143.9,49.1c0.2,0,0.5,0,0.6-0.1c0.2-0.1,0.4-0.2,0.6-0.4l0.5,0.5c-0.5,0.5-1,0.8-1.7,0.8s-1.2-0.2-1.6-0.6
			c-0.4-0.4-0.6-0.9-0.6-1.6s0.2-1.2,0.7-1.6c0.4-0.4,1-0.6,1.7-0.6c0.7,0,1.2,0.2,1.7,0.7l-0.5,0.5c-0.2-0.2-0.4-0.3-0.6-0.4
			c-0.2-0.1-0.4-0.1-0.6-0.1c-0.4,0-0.8,0.1-1.1,0.4c-0.3,0.3-0.4,0.6-0.4,1.1c0,0.4,0.1,0.8,0.4,1.1
			C143.2,49,143.5,49.1,143.9,49.1z"/>
		<path class="st0" d="M149,49.4c-0.3,0.3-0.7,0.5-1.2,0.5c-0.5,0-0.9-0.2-1.2-0.5c-0.3-0.3-0.5-0.7-0.5-1.2c0-0.5,0.2-0.9,0.5-1.2
			c0.3-0.3,0.7-0.5,1.2-0.5c0.5,0,0.9,0.2,1.2,0.5c0.3,0.3,0.5,0.7,0.5,1.2C149.5,48.6,149.3,49,149,49.4z M147,48.9
			c0.2,0.2,0.4,0.3,0.7,0.3c0.3,0,0.5-0.1,0.7-0.3c0.2-0.2,0.3-0.5,0.3-0.8c0-0.3-0.1-0.6-0.3-0.8c-0.2-0.2-0.4-0.3-0.7-0.3
			c-0.3,0-0.5,0.1-0.7,0.3c-0.2,0.2-0.3,0.5-0.3,0.8C146.8,48.5,146.8,48.7,147,48.9z"/>
		<path class="st0" d="M151,48v1.8h-0.7v-3.3h0.7v0.6c0.1-0.2,0.2-0.4,0.4-0.5c0.2-0.1,0.4-0.2,0.6-0.2c0.5,0,0.9,0.2,1.1,0.6
			c0.3-0.4,0.7-0.6,1.2-0.6c0.4,0,0.7,0.1,0.9,0.3c0.2,0.2,0.3,0.6,0.3,1v2h-0.7V48c0-0.6-0.3-0.9-0.8-0.9c-0.2,0-0.4,0.1-0.6,0.2
			s-0.3,0.4-0.3,0.7v1.8h-0.7V48c0-0.3-0.1-0.5-0.2-0.7c-0.1-0.1-0.3-0.2-0.5-0.2s-0.4,0.1-0.6,0.2C151.1,47.5,151,47.7,151,48z"/>
		<path class="st0" d="M158.3,46.5c0.4,0,0.8,0.2,1.1,0.5c0.3,0.3,0.5,0.7,0.5,1.2c0,0.5-0.2,0.9-0.5,1.2c-0.3,0.3-0.7,0.5-1.1,0.5
			c-0.4,0-0.8-0.2-1.1-0.5V51h-0.7v-4.5h0.7v0.6C157.5,46.7,157.8,46.5,158.3,46.5z M157.2,48.2c0,0.3,0.1,0.6,0.3,0.8
			c0.2,0.2,0.4,0.3,0.7,0.3c0.3,0,0.5-0.1,0.7-0.3c0.2-0.2,0.3-0.5,0.3-0.8c0-0.3-0.1-0.6-0.3-0.8c-0.2-0.2-0.4-0.3-0.7-0.3
			c-0.3,0-0.5,0.1-0.7,0.3C157.3,47.6,157.2,47.8,157.2,48.2z"/>
		<path class="st0" d="M162.9,48.3v-1.8h0.7v3.3h-0.7v-0.6c-0.1,0.2-0.3,0.4-0.5,0.5c-0.2,0.1-0.4,0.2-0.6,0.2
			c-0.4,0-0.7-0.1-0.9-0.3c-0.2-0.2-0.3-0.6-0.3-1v-2h0.7v1.8c0,0.6,0.3,0.9,0.8,0.9c0.2,0,0.4-0.1,0.6-0.2
			C162.9,48.8,162.9,48.6,162.9,48.3z"/>
		<path class="st0" d="M165.5,47.1v1.7c0,0.2,0,0.3,0.1,0.4c0.1,0.1,0.2,0.1,0.3,0.1c0.1,0,0.3-0.1,0.4-0.2l0.3,0.5
			c-0.2,0.2-0.5,0.3-0.8,0.3c-0.3,0-0.5-0.1-0.8-0.3c-0.2-0.2-0.3-0.5-0.3-0.8v-1.6h-0.4v-0.6h0.4v-1h0.7v1h0.9v0.6H165.5z"/>
		<path class="st0" d="M169.9,49.8h-0.6v-0.4c-0.3,0.3-0.6,0.5-1.1,0.5c-0.3,0-0.6-0.1-0.8-0.3c-0.2-0.2-0.3-0.5-0.3-0.8
			c0-0.3,0.1-0.6,0.4-0.7c0.2-0.2,0.6-0.2,1-0.2h0.9v-0.1c0-0.4-0.2-0.7-0.7-0.7c-0.3,0-0.6,0.1-0.9,0.3l-0.3-0.4
			c0.4-0.3,0.8-0.5,1.4-0.5c0.4,0,0.7,0.1,0.9,0.3c0.2,0.2,0.4,0.5,0.4,0.9V49.8z M169.2,48.6v-0.3h-0.8c-0.5,0-0.7,0.2-0.7,0.5
			c0,0.2,0.1,0.3,0.2,0.4s0.3,0.1,0.5,0.1c0.2,0,0.4-0.1,0.6-0.2C169.1,48.9,169.2,48.8,169.2,48.6z"/>
		<path class="st0" d="M172.8,50.5c0,0.2-0.1,0.3-0.2,0.4c-0.1,0.1-0.3,0.2-0.5,0.2c-0.2,0-0.4,0-0.5-0.1l0.2-0.4
			c0.1,0,0.2,0.1,0.2,0.1c0.1,0,0.1,0,0.2-0.1c0,0,0.1-0.1,0.1-0.2c0-0.1,0-0.1-0.1-0.2s-0.1-0.1-0.2-0.1c-0.1,0-0.1,0-0.2,0
			l0.2-0.4c-0.4,0-0.8-0.2-1-0.5c-0.3-0.3-0.4-0.7-0.4-1.2s0.2-0.9,0.5-1.2c0.3-0.3,0.8-0.5,1.3-0.5c0.5,0,0.9,0.2,1.2,0.5l-0.4,0.5
			c-0.3-0.2-0.6-0.4-0.9-0.4c-0.3,0-0.5,0.1-0.7,0.3c-0.2,0.2-0.3,0.4-0.3,0.7s0.1,0.6,0.3,0.8c0.2,0.2,0.5,0.3,0.8,0.3
			c0.3,0,0.6-0.1,0.9-0.4l0.4,0.4c-0.3,0.3-0.7,0.5-1.1,0.6l-0.1,0.2C172.7,50.1,172.8,50.2,172.8,50.5z"/>
		<path class="st0" d="M177,49.8h-0.6v-0.4c-0.3,0.3-0.6,0.5-1.1,0.5c-0.3,0-0.6-0.1-0.8-0.3c-0.2-0.2-0.3-0.5-0.3-0.8
			c0-0.3,0.1-0.6,0.4-0.7c0.2-0.2,0.6-0.2,1-0.2h0.9v-0.1c0-0.4-0.2-0.7-0.7-0.7c-0.3,0-0.6,0.1-0.9,0.3l-0.3-0.4
			c0.4-0.3,0.8-0.5,1.4-0.5c0.4,0,0.7,0.1,0.9,0.3c0.2,0.2,0.4,0.5,0.4,0.9V49.8z M176.1,46.1c-0.1,0-0.3,0-0.4-0.1
			c-0.2-0.1-0.3-0.1-0.4-0.1c-0.1,0-0.2,0.1-0.2,0.3h-0.5c0-0.2,0-0.4,0.1-0.6c0.1-0.1,0.2-0.2,0.4-0.2c0.1,0,0.3,0,0.5,0.1
			c0.2,0.1,0.3,0.1,0.4,0.1c0.1,0,0.2-0.1,0.2-0.3h0.5C176.7,45.9,176.5,46.1,176.1,46.1z M176.3,48.6v-0.3h-0.8
			c-0.5,0-0.7,0.2-0.7,0.5c0,0.2,0.1,0.3,0.2,0.4s0.3,0.1,0.5,0.1s0.4-0.1,0.6-0.2C176.2,48.9,176.3,48.8,176.3,48.6z"/>
		<path class="st0" d="M180.7,49.4c-0.3,0.3-0.7,0.5-1.2,0.5c-0.5,0-0.9-0.2-1.2-0.5c-0.3-0.3-0.5-0.7-0.5-1.2
			c0-0.5,0.2-0.9,0.5-1.2c0.3-0.3,0.7-0.5,1.2-0.5c0.5,0,0.9,0.2,1.2,0.5c0.3,0.3,0.5,0.7,0.5,1.2C181.2,48.6,181,49,180.7,49.4z
			 M178.7,48.9c0.2,0.2,0.4,0.3,0.7,0.3c0.3,0,0.5-0.1,0.7-0.3c0.2-0.2,0.3-0.5,0.3-0.8c0-0.3-0.1-0.6-0.3-0.8
			c-0.2-0.2-0.4-0.3-0.7-0.3c-0.3,0-0.5,0.1-0.7,0.3c-0.2,0.2-0.3,0.5-0.3,0.8C178.5,48.5,178.5,48.7,178.7,48.9z"/>
	</g>
</g>
</svg>
