<?xml version="1.0" encoding="utf-8"?>
<!-- Generator: Adobe Illustrator 22.1.0, SVG Export Plug-In . SVG Version: 6.00 Build 0)  -->
<svg version="1.1" id="Camada_1" xmlns="http://www.w3.org/2000/svg" xmlns:xlink="http://www.w3.org/1999/xlink" x="0px" y="0px"
	 viewBox="0 0 200 52" style="enable-background:new 0 0 200 52;" xml:space="preserve">
<style type="text/css">
	.st0{fill:#FFFFFF;}
</style>
<g>
	<path class="st0" d="M21.1,21.5c-1.9,0-3.5,0.7-4.9,2c-1.4,1.4-2.1,3-2.1,4.9v10.9H8.3V28.5c0-3.6,1.3-6.6,3.8-9.1s5.5-3.8,9.1-3.8
		c4,0.3,7.1,2,9.2,5l-4.5,3C24.4,22.2,22.9,21.5,21.1,21.5z"/>
	<path class="st0" d="M37.2,32.6c1.2,0.8,2.6,1.2,4.1,1.2c1.1,0,2.3-0.2,3.5-0.7c1.3-0.5,2.3-1.2,2.9-2l4.5,3.1
		c-1.1,1.6-2.7,2.8-4.8,3.7c-2,0.9-4,1.4-6,1.4c-2.1,0-4.1-0.5-6.1-1.6c-2-1.1-3.5-2.5-4.5-4.3c-0.6-0.9-1-1.9-1.2-2.9
		c-0.3-1-0.4-2.1-0.4-3.1c0-3.3,1.2-6.1,3.5-8.4c2.3-2.3,5.1-3.5,8.4-3.5c2.4,0,4.6,0.7,6.6,2c2.5,1.7,4.2,4.1,5.1,7.4L37.2,32.6z
		 M45.7,23.2c-1.1-1.7-2.7-2.5-4.8-2.5c-2.1,0-3.8,0.8-5.1,2.3c-1.2,1.6-1.6,3.5-1.2,5.6L45.7,23.2z"/>
	<path class="st0" d="M65,39.4c-3.3,0-6.1-1.2-8.4-3.5c-2.3-2.3-3.5-5.1-3.5-8.4c0-3.3,1.2-6.1,3.5-8.4c2.3-2.3,5.1-3.5,8.4-3.5
		c2.5,0,4.5,0.8,5.9,2.3V4.8h5.9v22.6c0,3.3-1.2,6.2-3.5,8.5C71.1,38.2,68.3,39.4,65,39.4z M69.2,31.9c1.2-1.2,1.7-2.7,1.7-4.4
		c0-1.7-0.6-3.2-1.7-4.4c-1.2-1.2-2.6-1.8-4.2-1.8c-1.6,0-3,0.6-4.2,1.8c-1.2,1.2-1.7,2.7-1.7,4.4c0,1.7,0.6,3.2,1.7,4.4
		c1.2,1.2,2.6,1.8,4.2,1.8C66.7,33.7,68.1,33.1,69.2,31.9z"/>
	<path class="st0" d="M96.7,10.3c-2,0-3.1,0-3.2,0.1c-0.2,0-0.3,0.1-0.4,0.3c-0.2,0.5-0.4,1.2-0.6,2.1l-1.1,5.9
		c-0.3,1.4-0.6,2.7-1,3.8c-0.5,1.3-1.1,2.4-1.8,3.2c-0.2,0.3-0.4,0.5-0.7,0.7c0.1,0.2,0.3,0.4,0.4,0.7c0.4,0.9,0.6,1.9,0.6,3.2
		c0,1.1-0.2,2.4-0.4,3.8l-1,5.2c-0.2,0.9-0.3,1.6-0.3,2.1c0,0.1,0.2,0.2,0.3,0.3c0.2,0,0.6,0.1,1.3,0.1h1.9l-1.1,5.5h-0.9
		c-1.2,0-2.3-0.1-3.1-0.4c-1.1-0.3-2-0.9-2.5-1.6c-0.6-0.7-0.9-1.7-0.9-3c0-1,0.1-2.1,0.3-3.4l0.9-4.7c0.2-1.1,0.3-2,0.3-2.7
		c0-0.5,0-0.9-0.1-1.1c-0.1-0.2-0.2-0.3-0.4-0.5c-0.3-0.2-0.8-0.4-1.4-0.5l1.1-5.7c0.7-0.2,1.2-0.4,1.6-0.6c0.3-0.2,0.5-0.3,0.6-0.5
		v0c0.2-0.2,0.4-0.6,0.6-1.1c0.3-0.7,0.5-1.6,0.7-2.7l1-5.5c0.3-1.3,0.6-2.4,1-3.4c0.5-1.3,1.2-2.3,2-3c0.9-0.7,1.9-1.3,3.1-1.6
		c1-0.3,2.3-0.4,4.2-0.4L96.7,10.3z"/>
	<path class="st0" d="M103.6,15.6L99,39.4h-4l4.6-23.8H103.6z M105.7,4.9l-0.8,4h-4l0.8-4H105.7z"/>
	<path class="st0" d="M123.8,39.4l2.3-11.9c0.4-2.2,0-4.1-1.3-5.6c-1.2-1.5-3-2.3-5.1-2.3c-2.2,0-4.2,0.8-6.1,2.3
		c-1.8,1.5-3,3.4-3.4,5.6l-2.3,11.9H104l2.3-11.9c0.6-3.3,2.3-6,5.1-8.4c2.8-2.3,5.8-3.5,9.1-3.5c3.3,0,5.8,1.2,7.7,3.5
		c1.9,2.3,2.5,5.1,1.8,8.4l-2.3,11.9H123.8z"/>
	<path class="st0" d="M132.4,39.4l4.4-22.6c0.6-3.2,1.9-5.8,3.8-7.9c1.2-1.3,2.6-2.3,4.2-3c2.3-1,4.7-1.3,7.2-0.8
		c1.8,0.3,3.6,1.2,5.3,2.6l-2.9,3.2c-1.2-1-2.4-1.6-3.5-1.8c-1.8-0.5-3.5-0.3-5.1,0.3c-0.9,0.4-1.7,1-2.4,1.8
		c-1.3,1.4-2.1,3.2-2.6,5.6l-0.6,3.3h11.1l-0.8,4h-11.1l-3,15.4H132.4z"/>
	<path class="st0" d="M174.7,19.1c1.9,2.3,2.5,5.1,1.9,8.4c-0.6,3.3-2.3,6.1-5.1,8.4c-2.8,2.3-5.8,3.5-9.1,3.5
		c-3.3,0-5.9-1.2-7.7-3.5c-1.9-2.3-2.5-5.1-1.8-8.4c0.6-3.3,2.3-6.1,5.1-8.4c2.8-2.3,5.8-3.5,9.1-3.5
		C170.3,15.6,172.9,16.8,174.7,19.1z M166.2,19.6c-2.2,0-4.2,0.8-6.1,2.3c-1.8,1.5-3,3.4-3.4,5.6c-0.4,2.2,0,4,1.2,5.6
		c1.2,1.5,3,2.3,5.2,2.3c2.2,0,4.2-0.8,6.1-2.3c1.8-1.6,3-3.4,3.4-5.6c0.4-2.2,0-4.1-1.2-5.6C170.1,20.3,168.4,19.6,166.2,19.6z"/>
	<path class="st0" d="M184,4.8c1.8,0,3.2,0.1,4,0.4c1.1,0.3,2,0.9,2.5,1.6c0.5,0.7,0.8,1.8,0.9,3c0,1-0.1,2.1-0.3,3.4l-1,5.5
		c-0.2,1.1-0.3,2-0.3,2.7c0,0.5,0,0.9,0.1,1.1v0c0.1,0.2,0.2,0.3,0.5,0.5c0.3,0.2,0.8,0.4,1.4,0.6l-1.1,5.7
		c-0.7,0.1-1.2,0.3-1.6,0.5c-0.3,0.1-0.5,0.3-0.6,0.5c-0.2,0.2-0.4,0.6-0.6,1.1c-0.3,0.7-0.5,1.6-0.7,2.7l-0.9,4.7
		c-0.3,1.3-0.6,2.4-1,3.4c-0.5,1.3-1.2,2.3-2.1,3c-0.9,0.8-1.9,1.3-3.2,1.6c-0.9,0.2-2,0.4-3.2,0.4h-0.9l1.1-5.5h1.9
		c0.7,0,1.1,0,1.3-0.1c0.2,0,0.3-0.1,0.4-0.3c0.2-0.5,0.4-1.2,0.6-2.1l1-5.2c0.3-1.4,0.6-2.7,1-3.8c0.5-1.3,1.1-2.4,1.8-3.2
		c0.2-0.2,0.4-0.5,0.7-0.7c-0.2-0.2-0.3-0.5-0.4-0.7c-0.4-0.8-0.6-1.9-0.6-3.2c0-1.1,0.1-2.4,0.4-3.8l1.1-5.9
		c0.2-0.9,0.3-1.6,0.2-2.1c0-0.1-0.1-0.2-0.3-0.3c-0.2,0-1.2-0.1-3.2-0.1L184,4.8z"/>
</g>
</svg>
